name C:\Users\antoi\Documents\MyRepositories\upper-imu-dc\Results\main_tracking\Case_92\kinematics.mot
datacolumns 43
datarows 8
range 4.50000000 4.64000000
endheader 
time	clav_prot	clav_elev	scapula_abduction	scapula_elevation	scapula_upward_rot	scapula_winging	plane_elv	shoulder_elv	axial_rot	TrapeziusScapula_M/activation	TrapeziusScapula_S/activation	TrapeziusScapula_I/activation	TrapeziusClavicle_S/activation	SerratusAnterior_I/activation	SerratusAnterior_M/activation	SerratusAnterior_S/activation	Rhomboideus_S/activation	Rhomboideus_I/activation	LevatorScapulae/activation	Coracobrachialis/activation	DeltoideusClavicle_A/activation	DeltoideusScapula_P/activation	DeltoideusScapula_M/activation	LatissimusDorsi_S/activation	LatissimusDorsi_M/activation	LatissimusDorsi_I/activation	PectoralisMajorClavicle_S/activation	PectoralisMajorThorax_I/activation	PectoralisMajorThorax_M/activation	TeresMajor/activation	Infraspinatus_I/activation	Infraspinatus_S/activation	PectoralisMinor/activation	TeresMinor/activation	Subscapularis_S/activation	Subscapularis_M/activation	Subscapularis_I/activation	Supraspinatus_P/activation	Supraspinatus_A/activation	TRIlong/activation	BIC_long/activation	BIC_brevis/activation	
          4.50000000	        -35.23058352	         -0.23020868	        -20.18250362	         -6.52038097	         34.81843537	         -3.07345310	          2.28455605	         64.03554855	          5.77997104	          0.03575570	          0.09798040	          0.02797896	          0.02366250	          0.08390977	          0.06375357	          0.01112757	          0.01138182	          0.01064755	          0.01095953	          0.01079415	          0.03591098	          0.02193615	          0.16096046	          0.01077627	          0.01037641	          0.01041697	          0.01136320	          0.01024804	          0.01049667	          0.01063846	          0.04664371	          0.04849513	          0.01049838	          0.01655682	          0.01100468	          0.01088981	          0.01076220	          0.01810111	          0.01466230	          0.01038726	          0.02165730	          0.01115620	
          4.52000000	        -35.29292186	         -0.16389076	        -20.02826916	         -6.53487542	         35.18808114	         -3.19126609	          2.44299136	         64.68773103	          5.85665178	          0.03597030	          0.09864453	          0.02811490	          0.02383186	          0.08494649	          0.06541164	          0.01111533	          0.01126089	          0.01063562	          0.01094275	          0.01079891	          0.03711455	          0.02165444	          0.16217576	          0.01076464	          0.01037007	          0.01040797	          0.01137026	          0.01024590	          0.01049560	          0.01063405	          0.04702858	          0.04876358	          0.01049320	          0.01659001	          0.01100049	          0.01088134	          0.01075334	          0.01822724	          0.01473555	          0.01038227	          0.02181011	          0.01116489	
          4.54000000	        -35.36028088	         -0.10024945	        -19.87071434	         -6.55300399	         35.57113205	         -3.31164639	          2.60116208	         65.32912996	          5.90296363	          0.03620173	          0.09922433	          0.02828643	          0.02398337	          0.08599749	          0.06702449	          0.01110403	          0.01126251	          0.01062437	          0.01092736	          0.01080545	          0.03835809	          0.02124954	          0.16309160	          0.01075343	          0.01036418	          0.01039962	          0.01138141	          0.01024401	          0.01049511	          0.01062982	          0.04741374	          0.04900457	          0.01048819	          0.01662525	          0.01099718	          0.01087332	          0.01074469	          0.01836965	          0.01484001	          0.01037727	          0.02200195	          0.01117553	
          4.56000000	        -35.43238155	         -0.03856637	        -19.71051414	         -6.57394253	         35.96627784	         -3.43448508	          2.75973201	         65.95810349	          5.92242537	          0.03643337	          0.09978767	          0.02844016	          0.02413092	          0.08700256	          0.06865226	          0.01109202	          0.01125050	          0.01061434	          0.01091282	          0.01081376	          0.03966632	          0.02070906	          0.16384075	          0.01074276	          0.01035854	          0.01039180	          0.01138816	          0.01024233	          0.01049527	          0.01062504	          0.04777109	          0.04921275	          0.01048331	          0.01664976	          0.01099517	          0.01086599	          0.01073638	          0.01853266	          0.01498349	          0.01037174	          0.02224441	          0.01118868	
          4.58000000	        -35.50839406	          0.02248393	        -19.54864343	         -6.59620280	         36.37086881	         -3.55949266	          2.92023540	         66.57337675	          5.92229053	          0.03666511	          0.10038972	          0.02854611	          0.02428719	          0.08796082	          0.07031740	          0.01107945	          0.01122459	          0.01060567	          0.01089931	          0.01082344	          0.04104772	          0.02006466	          0.16455660	          0.01073195	          0.01035287	          0.01038422	          0.01141622	          0.01024077	          0.01049589	          0.01061977	          0.04808116	          0.04938949	          0.01047827	          0.01665440	          0.01099526	          0.01086025	          0.01072916	          0.01871471	          0.01516430	          0.01036546	          0.02253325	          0.01120384	
          4.60000000	        -35.58732783	          0.08439151	        -19.38620728	         -6.61812890	         36.78182513	         -3.68633066	          3.08461516	         67.17405323	          5.91169827	          0.03690999	          0.10106356	          0.02861172	          0.02445758	          0.08888265	          0.07201673	          0.01106854	          0.01120838	          0.01059900	          0.01088949	          0.01083311	          0.04246911	          0.01940187	          0.16533180	          0.01072081	          0.01034714	          0.01037680	          0.01139015	          0.01023922	          0.01049660	          0.01061431	          0.04832901	          0.04953912	          0.01047304	          0.01663701	          0.01099700	          0.01085599	          0.01072322	          0.01890324	          0.01536193	          0.01035894	          0.02283524	          0.01121899	
          4.62000000	        -35.66836759	          0.14845801	        -19.22432816	         -6.63828783	         37.19637612	         -3.81472169	          3.25473263	         67.75954020	          5.89970834	          0.03718044	          0.10184388	          0.02864944	          0.02464400	          0.08976385	          0.07373650	          0.01105855	          0.01119684	          0.01059386	          0.01088219	          0.01084177	          0.04386437	          0.01880649	          0.16623003	          0.01070939	          0.01034135	          0.01036945	          0.01143696	          0.01023755	          0.01049694	          0.01060922	          0.04851787	          0.04967579	          0.01046754	          0.01660155	          0.01099931	          0.01085262	          0.01071837	          0.01908163	          0.01554820	          0.01035278	          0.02310585	          0.01123318	
          4.64000000	        -35.75102012	          0.21569722	        -19.06404060	         -6.65560632	         37.61247205	         -3.94453091	          3.43192872	         68.32945024	          5.89340769	          0.03748017	          0.10273366	          0.02866894	          0.02484608	          0.09059418	          0.07546838	          0.01104820	          0.01118695	          0.01058984	          0.01087623	          0.01084883	          0.04519939	          0.01832116	          0.16723157	          0.01069805	          0.01033558	          0.01036221	          0.01145052	          0.01023572	          0.01049664	          0.01060495	          0.04865996	          0.04980847	          0.01046183	          0.01655496	          0.01100187	          0.01085008	          0.01071468	          0.01923926	          0.01570269	          0.01034745	          0.02331916	          0.01124506	
